<svg width="101" height="100" viewBox="0 0 101 100" fill="none" xmlns="http://www.w3.org/2000/svg">
<path d="M62.5104 46.9766C65.8081 51.5116 73.7645 64.4923 77.1203 68.9824C77.2609 69.1698 77.4072 69.3629 77.6171 69.4679C78.1664 69.7454 78.7832 69.2992 79.28 68.9355C82.0341 66.922 85.9092 66.9501 89.0381 68.3093C92.1671 69.6685 94.6605 72.1713 96.7827 74.8428C96.9571 75.0622 97.1389 75.3209 97.0845 75.5946C97.032 75.8646 96.7733 76.0371 96.5371 76.1777C88.7607 80.8327 80.9823 85.4858 73.2059 90.1408C72.9115 90.317 72.5778 90.5007 72.2441 90.4258C71.9329 90.3583 71.7136 90.0883 71.5205 89.8352C63.1609 78.9017 52.9811 63.5643 46.3669 51.4947" fill="#262626"/>
<path d="M78.9229 67.6671C79.0129 69.0731 79.1029 70.4792 79.1929 71.8853C79.2154 72.2321 79.7572 72.234 79.7347 71.8853C79.6447 70.4792 79.5547 69.0731 79.4647 67.6671C79.4422 67.3202 78.9004 67.3184 78.9229 67.6671Z" fill="white" stroke="white" stroke-width="1.43751"/>
<path d="M81.794 67.9685C82.1071 69.0634 82.4183 70.1563 82.7313 71.2512C82.827 71.5868 83.35 71.4443 83.2544 71.1068C82.9413 70.012 82.6301 68.919 82.317 67.8242C82.2214 67.4886 81.6984 67.6311 81.794 67.9685Z" fill="white" stroke="white" stroke-width="1.43751"/>
<path d="M94.3074 74.486C91.0397 76.3233 87.802 78.2149 84.5999 80.1627C81.3979 82.1106 78.252 84.0978 75.1306 86.1451C73.3627 87.3055 71.6061 88.4829 69.8625 89.6752C69.5757 89.8702 69.8475 90.3408 70.1362 90.1439C73.2296 88.0273 76.3604 85.9632 79.525 83.9554C82.6765 81.955 85.8635 80.0071 89.0825 78.1155C90.9047 77.045 92.7382 75.9914 94.5811 74.9547C94.8848 74.7841 94.613 74.3154 94.3074 74.486Z" fill="white" stroke="white" stroke-width="1.43751"/>
<path d="M27.3846 63.5654C17.1766 64.3678 11.8111 65.1702 1.60307 65.9745C1.11564 66.012 0.573835 66.0794 0.266376 66.46C0.00953568 66.7787 -0.00172107 67.2249 0.000153681 67.6336C0.0376487 76.5181 0.358234 85.4025 0.963778 94.2663C4.20709 94.9525 7.7335 94.1651 10.3769 92.1628C13.0203 90.1606 14.7338 86.9792 14.9513 83.6702C15.0038 82.8678 15.0207 81.9548 15.6262 81.428C15.988 81.1149 16.4811 81.0175 16.9535 80.9331C22.3434 79.9713 27.8008 79.3902 33.2713 79.1914C37.109 79.0527 40.3298 76.2556 40.9859 72.4705L43.6518 51.4414L28.067 53.0837L27.3846 63.5673V63.5654Z" fill="#262626"/>
<path d="M16.4872 84.0296C13.9394 83.0959 11.3935 82.1623 8.8457 81.2287C8.51762 81.1087 8.37514 81.6318 8.70134 81.7518C11.2491 82.6854 13.795 83.619 16.3428 84.5526C16.6709 84.6726 16.8134 84.1496 16.4872 84.0296Z" fill="white" stroke="white" stroke-width="1.43751"/>
<path d="M15.2167 87.7455C13.3795 87.1175 11.5441 86.4894 9.70683 85.8595C9.375 85.747 9.23439 86.2701 9.56247 86.3826C11.3997 87.0106 13.2351 87.6386 15.0724 88.2686C15.4042 88.381 15.5448 87.858 15.2167 87.7455Z" fill="white" stroke="white" stroke-width="1.43751"/>
<path d="M1.65247 66.7353C1.99555 69.8792 2.28426 73.0288 2.5186 76.1821C2.75294 79.3355 2.93105 82.5244 3.05479 85.7003C3.12415 87.4813 3.17477 89.2641 3.20852 91.047C3.21602 91.3957 3.75781 91.3976 3.75031 91.047C3.69032 87.8843 3.57597 84.7235 3.40536 81.5664C3.23476 78.3925 3.00792 75.2223 2.72483 72.0577C2.56547 70.2823 2.38925 68.5069 2.19615 66.7353C2.15865 66.3922 1.61685 66.3885 1.65434 66.7353H1.65247Z" fill="white" stroke="white" stroke-width="1.43751"/>
<path d="M22.243 96.619C16.255 96.4522 10.2296 96.2872 4.29976 97.0783C3.56111 97.1777 2.62374 97.5058 2.67248 98.1901C2.7156 98.8069 3.53299 99.0693 4.19478 99.1706C9.38221 99.9598 14.669 99.9805 19.9277 100.001C22.6048 100.01 25.3757 100.005 27.826 99.0131C28.2741 98.8312 28.7803 98.3794 28.4915 98.0157C28.3641 97.8545 28.1297 97.8076 27.916 97.7739C25.2407 97.3521 26.4424 96.5141 23.7372 96.7109" fill="#262626"/>
<path d="M71.8158 96.4704C79.8735 96.1667 87.9312 95.863 95.9907 95.5592C97.3743 95.5068 98.7691 95.4561 100.128 95.698C100.046 97.0047 98.6622 97.584 97.5524 97.7508C94.969 98.137 92.3687 98.1127 89.7778 98.0864C84.2642 98.032 78.7486 97.9758 73.235 97.9214C72.3089 97.9121 71.1728 97.734 70.8822 96.716C71.2497 96.6597 71.6152 96.6035 71.9827 96.5491" fill="#262626"/>
<path d="M88.9166 3.29956L84.4322 0L0.117188 17.4989V56.1956L4.60159 59.7745L88.9166 42.0413V3.29956Z" fill="#262626"/>
<path d="M6.03528 21.9632L87.4819 5.05859V40.8738L6.03528 58.0034V21.9632Z" fill="white"/>
<path d="M86.0457 6.82125V39.7081L7.46936 56.234V23.1278L86.0457 6.81937M88.9141 3.29297L4.59912 20.7919V59.7679L88.9141 42.0347V3.29297Z" fill="#262626"/>
<path d="M13.8146 28.0071C16.8236 27.426 18.2821 27.1447 21.1205 26.5973C23.8857 25.8793 29.1313 25.7668 28.9644 29.9794C28.8707 32.3416 27.7084 34.7469 25.3724 36.0761C28.282 36.0479 30.0068 38.1102 29.9468 40.8679C29.8474 45.2998 25.1231 47.0471 21.3586 47.8101C18.434 48.4007 16.9342 48.7006 13.8408 49.3118C13.689 42.2102 13.9514 35.1087 13.8165 28.0071H13.8146ZM20.9461 34.6231C22.5416 34.295 23.3683 33.4701 23.3777 32.2947C23.3871 31.153 22.5978 30.7761 20.9986 31.1155C20.5449 31.2111 20.3181 31.2598 19.8607 31.3573C19.8569 32.694 19.8513 33.4083 19.8382 34.8518C20.2825 34.76 20.5037 34.715 20.9461 34.6231ZM19.795 39.5162C19.78 41.1847 19.7725 42.0134 19.7688 43.5507C20.4456 43.4269 20.783 43.3669 21.4523 43.2451C23.2389 42.9208 24.137 42.1165 24.1482 40.8323C24.1595 39.4825 23.2146 38.8657 21.4823 39.1956C20.813 39.3231 20.4756 39.3869 19.7969 39.5162H19.795Z" fill="#262626"/>
<path d="M74.2576 16.0707C80.5286 14.9215 83.0145 20.152 83.0127 25.0582C83.0127 31.1606 80.6317 36.2468 74.1507 37.6153C68.1984 38.8733 64.7601 34.3345 64.8876 28.714C65.0188 22.9379 68.1215 17.1955 74.2557 16.0726L74.2576 16.0707ZM74.1488 33.4646C76.3592 33.0541 77.8327 30.2663 77.8702 25.9919C77.9077 21.8262 76.4923 19.7358 74.2613 20.2214C72.0304 20.707 70.4987 23.3953 70.4556 27.4898C70.4125 31.6555 71.9385 33.8752 74.1488 33.4646Z" fill="#262626"/>
<path d="M39.5803 22.7152C45.8514 21.566 48.3373 26.7966 48.3354 31.7028C48.3354 37.8051 45.9545 42.8913 39.4735 44.2599C33.5211 45.5178 30.0829 40.979 30.2103 35.3585C30.3416 29.5824 33.4443 23.8401 39.5785 22.7171L39.5803 22.7152ZM39.4716 40.1092C41.6819 39.6986 43.1555 36.9108 43.193 32.6364C43.2305 28.4707 41.815 26.3804 39.5841 26.8659C37.3531 27.3515 35.8215 30.0399 35.7783 34.1343C35.7352 38.3 37.2613 40.5197 39.4716 40.1092Z" fill="#262626"/>
<path d="M49.1862 21.166C51.1097 20.7911 52.0602 20.6055 53.948 20.2343L59.2648 29.428C59.278 26.0141 59.3042 22.6002 59.2836 19.1863C61.1433 18.8188 62.0676 18.637 63.9161 18.2695C63.9498 25.1574 63.8617 32.0433 63.9011 38.9311C61.9513 39.338 60.9765 39.5423 59.0136 39.9566L53.9124 31.2897C53.8956 34.5386 53.8637 37.7894 53.8843 41.0402C51.9871 41.4414 51.0328 41.6439 49.1018 42.0526C49.0643 35.0917 49.2162 28.1307 49.188 21.1698L49.1862 21.166Z" fill="#262626"/>
</svg>
