<svg width="14" height="11" viewBox="0 0 14 11" fill="none" xmlns="http://www.w3.org/2000/svg">
<path d="M12.4433 1.2465C12.3658 1.16839 12.2736 1.1064 12.1721 1.06409C12.0705 1.02178 11.9616 1 11.8516 1C11.7416 1 11.6327 1.02178 11.5311 1.06409C11.4296 1.1064 11.3374 1.16839 11.2599 1.2465L5.0516 7.46316L2.44327 4.8465C2.36283 4.7688 2.26788 4.7077 2.16384 4.6667C2.05979 4.6257 1.94869 4.60559 1.83687 4.60752C1.72505 4.60946 1.61471 4.6334 1.51215 4.67798C1.40958 4.72255 1.3168 4.7869 1.2391 4.86733C1.1614 4.94777 1.10031 5.04272 1.0593 5.14676C1.0183 5.25081 0.998193 5.36191 1.00013 5.47373C1.00206 5.58555 1.026 5.69589 1.07058 5.79845C1.11516 5.90102 1.1795 5.9938 1.25994 6.0715L4.45994 9.2715C4.53741 9.3496 4.62957 9.4116 4.73112 9.45391C4.83267 9.49621 4.94159 9.518 5.0516 9.518C5.16161 9.518 5.27053 9.49621 5.37208 9.45391C5.47363 9.4116 5.5658 9.3496 5.64327 9.2715L12.4433 2.4715C12.5279 2.39346 12.5954 2.29875 12.6415 2.19334C12.6877 2.08792 12.7115 1.97408 12.7115 1.859C12.7115 1.74391 12.6877 1.63008 12.6415 1.52466C12.5954 1.41924 12.5279 1.32453 12.4433 1.2465Z" fill="white" fill-opacity="0.91"/>
<path d="M11.0824 1.07045L5.05177 7.10921L2.62033 4.67L2.62036 4.66997L2.61696 4.66669C2.51291 4.56618 2.39009 4.48715 2.2555 4.43411C2.12091 4.38107 1.97719 4.35506 1.83255 4.35756C1.6879 4.36006 1.54517 4.39103 1.41249 4.4487C1.27982 4.50636 1.1598 4.58959 1.05929 4.69364C0.958785 4.79769 0.879755 4.92051 0.826715 5.0551C0.773674 5.18969 0.747662 5.33341 0.750165 5.47805C0.752667 5.6227 0.783635 5.76543 0.841299 5.89811C0.898656 6.03007 0.981308 6.14952 1.08458 6.24969L4.28244 9.44755C4.28256 9.44767 4.28268 9.4478 4.28281 9.44792C4.38344 9.54928 4.50312 9.62975 4.63498 9.68468C4.76699 9.73968 4.90859 9.768 5.0516 9.768C5.19462 9.768 5.33621 9.73968 5.46823 9.68468C5.60005 9.62976 5.71971 9.54932 5.82033 9.44799C5.82048 9.44784 5.82062 9.44769 5.82077 9.44755L12.6167 2.6516C12.7248 2.55085 12.8112 2.42904 12.8705 2.29364L12.6415 2.19334L12.8705 2.29364C12.9306 2.1566 12.9615 2.00861 12.9615 1.859C12.9615 1.70939 12.9306 1.5614 12.8705 1.42436L12.6415 1.52466L12.8705 1.42436C12.8113 1.28902 12.7249 1.16725 12.6169 1.06653C12.517 0.966835 12.3985 0.887606 12.2682 0.833316C12.1362 0.778316 11.9946 0.75 11.8516 0.75C11.7086 0.75 11.567 0.778316 11.435 0.833315L11.5311 1.06409L11.435 0.833316C11.3031 0.888271 11.1833 0.96878 11.0827 1.0702C11.0826 1.07028 11.0825 1.07037 11.0824 1.07045Z" stroke="white" stroke-opacity="0.91" stroke-width="0.5"/>
</svg>
