<svg width="346" height="19" viewBox="0 0 346 19" fill="none" xmlns="http://www.w3.org/2000/svg">
<rect y="9" width="150.5" height="1" fill="#CCCCCC"/>
<path d="M173.214 11.234C173.214 11.8593 173.13 12.4147 172.962 12.9C172.803 13.376 172.57 13.782 172.262 14.118C171.963 14.454 171.595 14.7107 171.156 14.888C170.727 15.056 170.246 15.14 169.714 15.14C169.219 15.14 168.762 15.056 168.342 14.888C167.922 14.7107 167.558 14.454 167.25 14.118C166.942 13.782 166.699 13.376 166.522 12.9C166.354 12.4147 166.27 11.8593 166.27 11.234C166.27 10.4033 166.41 9.70333 166.69 9.134C166.97 8.55533 167.371 8.11667 167.894 7.818C168.417 7.51 169.037 7.356 169.756 7.356C170.437 7.356 171.035 7.51 171.548 7.818C172.071 8.11667 172.477 8.55533 172.766 9.134C173.065 9.70333 173.214 10.4033 173.214 11.234ZM167.544 11.234C167.544 11.822 167.619 12.3353 167.768 12.774C167.927 13.2033 168.169 13.5347 168.496 13.768C168.823 14.0013 169.238 14.118 169.742 14.118C170.246 14.118 170.661 14.0013 170.988 13.768C171.315 13.5347 171.553 13.2033 171.702 12.774C171.861 12.3353 171.94 11.822 171.94 11.234C171.94 10.6367 171.861 10.128 171.702 9.708C171.543 9.288 171.301 8.966 170.974 8.742C170.657 8.50867 170.241 8.392 169.728 8.392C168.963 8.392 168.407 8.644 168.062 9.148C167.717 9.652 167.544 10.3473 167.544 11.234ZM178.667 7.356C178.807 7.356 178.956 7.36533 179.115 7.384C179.283 7.39333 179.427 7.412 179.549 7.44L179.395 8.574C179.273 8.546 179.138 8.52267 178.989 8.504C178.849 8.48533 178.713 8.476 178.583 8.476C178.293 8.476 178.018 8.53667 177.757 8.658C177.495 8.77933 177.262 8.952 177.057 9.176C176.851 9.39067 176.688 9.652 176.567 9.96C176.455 10.268 176.399 10.6133 176.399 10.996V15H175.167V7.496H176.175L176.315 8.868H176.371C176.529 8.588 176.721 8.336 176.945 8.112C177.169 7.87867 177.425 7.69667 177.715 7.566C178.004 7.426 178.321 7.356 178.667 7.356Z" fill="#666666"/>
<rect x="195.5" y="9" width="150.5" height="1" fill="#CCCCCC"/>
</svg>
