<svg width="60" height="40" viewBox="0 0 60 40" fill="none" xmlns="http://www.w3.org/2000/svg">
<g clip-path="url(#clip0_5658_6660)">
<path d="M59.2308 2.20747L56.2398 0L0 11.7105V37.6057L2.99098 40L59.2308 28.1331V2.20747Z" fill="#111111"/>
<path d="M3.94849 14.6982L58.2733 3.38672V27.3535L3.94849 38.8165V14.6982Z" fill="white"/>
<path d="M57.317 4.56732V26.5753L4.90476 37.6344V15.4797L57.317 4.56732ZM59.2308 2.20824L2.99097 13.9175V39.9996L59.2308 28.1326V2.20703V2.20824Z" fill="#111111"/>
<path d="M9.13864 18.7424C11.1455 18.3531 12.1175 18.1651 14.0108 17.7988C15.8556 17.3185 19.3544 17.2433 19.2432 20.062C19.1803 21.6437 18.4054 23.2519 16.847 24.1422C18.7874 24.124 19.9383 25.5043 19.8984 27.3491C19.8331 30.3146 16.6802 31.4839 14.1704 31.9957C12.2203 32.3899 11.2193 32.5912 9.15557 33C9.05402 28.2479 9.22931 23.4945 9.13985 18.7424H9.13864ZM13.8947 23.1695C14.9598 22.9499 15.5099 22.3981 15.5159 21.6121C15.522 20.848 14.9949 20.5957 13.9298 20.8225C13.6275 20.8868 13.4752 20.9196 13.1705 20.9838C13.1681 21.879 13.1645 22.3556 13.156 23.3223C13.4522 23.2604 13.6009 23.2301 13.8947 23.1695ZM13.127 26.4431C13.1173 27.5589 13.1125 28.1144 13.1089 29.143C13.561 29.0605 13.7847 29.0193 14.2308 28.938C15.4228 28.7209 16.0213 28.1836 16.0285 27.3236C16.0358 26.42 15.4059 26.0076 14.2501 26.2284C13.804 26.3133 13.5792 26.357 13.1258 26.4431H13.127Z" fill="#111111"/>
<path d="M49.455 10.7519C53.638 9.98297 55.2955 13.4834 55.2955 16.7667C55.2955 20.8505 53.7069 24.2539 49.3849 25.1696C45.4134 26.0113 43.1212 22.9731 43.2059 19.2131C43.2929 15.3476 45.3627 11.5051 49.455 10.7532V10.7519ZM49.3825 22.3921C50.8562 22.1168 51.8403 20.2525 51.8645 17.3913C51.8887 14.6041 50.9457 13.2044 49.4574 13.5295C47.9692 13.8545 46.9476 15.6545 46.9198 18.3944C46.8908 21.1828 47.9087 22.6674 49.3825 22.3921Z" fill="#111111"/>
<path d="M26.3239 15.2012C30.5069 14.4322 32.1644 17.9326 32.1644 21.2159C32.1644 25.2997 30.5758 28.7031 26.2538 29.6188C22.2823 30.4606 19.9901 27.4223 20.0748 23.6623C20.1618 19.7968 22.2316 15.9544 26.3239 15.2024V15.2012ZM26.2514 26.8413C27.7251 26.566 28.7092 24.7018 28.7334 21.8405C28.7576 19.0533 27.8146 17.6536 26.3263 17.9787C24.8381 18.3037 23.8165 20.1037 23.7887 22.8436C23.7597 25.632 24.7776 27.1166 26.2514 26.8413Z" fill="#111111"/>
<path d="M32.7315 14.166C34.0155 13.9149 34.649 13.79 35.9075 13.5426L39.4546 19.6943C39.463 17.4093 39.48 15.1242 39.4667 12.8403C40.7071 12.5953 41.3236 12.4728 42.5568 12.2266C42.5798 16.8356 42.5205 21.4445 42.5471 26.0523C41.2475 26.324 40.5958 26.4611 39.2865 26.7376L35.8845 20.9376C35.8724 23.1123 35.8519 25.287 35.8652 27.4629C34.6006 27.731 33.9635 27.8668 32.6747 28.1397C32.6493 23.481 32.7521 18.8235 32.7315 14.1648V14.166Z" fill="#111111"/>
</g>
<defs>
<clipPath id="clip0_5658_6660">
<rect width="59.2308" height="40" fill="white"/>
</clipPath>
</defs>
</svg>
