<svg width="14" height="14" viewBox="0 0 14 14" fill="none" xmlns="http://www.w3.org/2000/svg">
<path d="M12.3333 5.66536H8.33334V1.66536C8.33334 1.31174 8.19286 0.972604 7.94281 0.722556C7.69276 0.472507 7.35362 0.332031 7 0.332031C6.64638 0.332031 6.30724 0.472507 6.05719 0.722556C5.80715 0.972604 5.66667 1.31174 5.66667 1.66536V5.66536H1.66667C1.31305 5.66536 0.973909 5.80584 0.72386 6.05589C0.473812 6.30594 0.333336 6.64508 0.333336 6.9987C0.333336 7.35232 0.473812 7.69146 0.72386 7.94151C0.973909 8.19155 1.31305 8.33203 1.66667 8.33203H5.66667V12.332C5.66667 12.6857 5.80715 13.0248 6.05719 13.2748C6.30724 13.5249 6.64638 13.6654 7 13.6654C7.35362 13.6654 7.69276 13.5249 7.94281 13.2748C8.19286 13.0248 8.33334 12.6857 8.33334 12.332V8.33203H12.3333C12.687 8.33203 13.0261 8.19155 13.2761 7.94151C13.5262 7.69146 13.6667 7.35232 13.6667 6.9987C13.6667 6.64508 13.5262 6.30594 13.2761 6.05589C13.0261 5.80584 12.687 5.66536 12.3333 5.66536Z" fill="black" fill-opacity="0.8"/>
</svg>
